<?xml version="1.0" encoding="UTF-8"?>
<svg version="1.1" xmlns="http://www.w3.org/2000/svg" width="1024" height="1024">

<path d="M0 0 C0.75571289 -0.00926514 1.51142578 -0.01853027 2.29003906 -0.02807617 C14.95135451 0.04214208 25.37553102 4.95328 34.5390625 13.58203125 C40.1914611 19.86963426 44.50339924 27.13227397 46.9375 35.25 C47.576875 34.92 48.21625 34.59 48.875 34.25 C59.7733904 30.69134191 69.98918776 35.65684658 79.69799805 40.50073242 C89.56231368 45.57826014 98.57102934 51.56010619 107.45141602 58.19360352 C113.01278986 62.14695733 120.76655795 60.23487223 127.12939453 59.28491211 C141.6958924 57.11016999 156.28749195 56.52975428 170.98803711 55.98486328 C180.78374774 55.60595243 190.25236645 54.83241355 199.9375 53.25 C201.26568163 53.07614252 202.5949558 52.91011649 203.92578125 52.7578125 C207.93556449 52.29605133 211.93648559 51.78191282 215.9375 51.25 C216.85466797 51.12931152 217.77183594 51.00862305 218.71679688 50.88427734 C242.97380228 47.60426697 263.64935195 40.98717767 285.25390625 29.65234375 C294.93229494 24.63970925 304.43662503 19.98664902 315.3125 18.4375 C331.16502639 15.70574924 346.35450509 9.3248335 360.7421875 2.24609375 C362.9375 1.25 362.9375 1.25 364.9375 1.25 C364.82469527 5.95703374 364.70560564 9.26243561 361.75 13.0625 C356.83106841 16.88833568 352.12476307 19.77364669 346.296875 22.01171875 C345.68861877 22.24784378 345.08036255 22.48396881 344.45367432 22.72724915 C342.53417204 23.47083803 340.61105012 24.20445447 338.6875 24.9375 C337.38254679 25.44006581 336.07785663 25.94331523 334.7734375 26.44726562 C332.39692082 27.36523879 330.019119 28.27989654 327.63964844 29.19018555 C325.02324028 30.16973309 325.02324028 30.16973309 322.9375 31.25 C328.72941904 33.94969117 334.56464113 35.61901085 340.75 37.1875 C341.75740234 37.44764893 342.76480469 37.70779785 343.80273438 37.97583008 C350.86168252 39.7790279 357.94519179 41.43654589 365.08911133 42.86889648 C369.71152097 43.83173682 373.67655489 45.28042251 377.9375 47.25 C378.125 49.625 378.125 49.625 377.9375 52.25 C372.22227522 56.06014986 365.48947026 54.27009613 359.05859375 53.078125 C356.49539927 52.56189959 353.93424334 52.03547 351.375 51.5 C350.0278337 51.22460971 348.68058378 50.94962818 347.33325195 50.67504883 C339.17466163 48.99813822 331.09715233 47.11284211 323.04296875 44.99609375 C319.00120783 44.02505433 315.07923547 43.54583825 310.9375 43.25 C314.1705404 46.62284756 317.38751799 49.4394313 321.25 52.0625 C321.7769043 52.42504883 322.30380859 52.78759766 322.84667969 53.16113281 C326.88167643 55.91819634 330.97988637 58.57108078 335.08984375 61.21484375 C336.17418701 61.91955811 337.25853027 62.62427246 338.37573242 63.3503418 C340.56666101 64.77246684 342.76599155 66.18173869 344.97387695 67.57739258 C346.49501099 68.56775513 346.49501099 68.56775513 348.046875 69.578125 C348.96436523 70.1649707 349.88185547 70.75181641 350.82714844 71.35644531 C352.9375 73.25 352.9375 73.25 353.86816406 75.85449219 C353.89104492 76.64500977 353.91392578 77.43552734 353.9375 78.25 C353.2775 78.91 352.6175 79.57 351.9375 80.25 C345.1653849 80.19646549 340.12697877 76.92153967 334.375 73.625 C332.41104009 72.52836356 330.44619644 71.43330828 328.48046875 70.33984375 C327.53091309 69.80858887 326.58135742 69.27733398 325.60302734 68.72998047 C317.01386465 63.96102056 308.53931021 59.5730186 298.9375 57.25 C300.25238831 61.40560957 301.55838328 63.04677779 305.25 65.3125 C314.81607999 71.64829501 322.94341734 80.07000844 330.9375 88.25 C330.2775 89.9 329.6175 91.55 328.9375 93.25 C319.33150343 91.84340764 311.64090624 84.43766882 304.6171875 78.15869141 C297.20957243 71.62297519 292.27952479 69.6656127 282.4375 70.125 C276.07235216 70.36808202 271.08458916 70.15352237 264.9375 68.25 C251.30054511 66.8359987 239.70875147 69.64181648 226.9375 74.25 C225.09671875 74.8996875 225.09671875 74.8996875 223.21875 75.5625 C214.22172916 78.96677815 205.63790482 83.23013424 196.99072266 87.42626953 C188.92492671 91.32961827 180.80482951 95.09167858 172.625 98.75 C171.53541992 99.24193848 170.44583984 99.73387695 169.32324219 100.24072266 C162.31722398 103.35295784 155.25363182 105.96130084 147.9375 108.25 C149.9175 108.58 151.8975 108.91 153.9375 109.25 C146.91130808 117.19882318 134.28832272 120.52399282 124.08984375 121.53125 C116.29289441 121.79443816 108.72729433 120.61430356 102.4375 115.75 C95.86230929 110.67814389 87.41673572 109.93949076 79.45092773 108.50634766 C64.36117865 105.72468233 50.03221387 101.29014201 35.9375 95.25 C35.22883789 94.94723145 34.52017578 94.64446289 33.79003906 94.33251953 C22.79151415 89.5607663 12.65141287 83.68146752 2.54711914 77.24633789 C0.90281296 76.19495059 0.90281296 76.19495059 -1.0625 75.25 C5.39394406 85.57745367 12.39827783 94.57285069 20.9375 103.25 C21.68257813 104.02214844 22.42765625 104.79429687 23.1953125 105.58984375 C27.57184142 110.06076839 32.19363583 114.17621616 36.9375 118.25 C38.03070371 119.20616783 39.12308047 120.16328155 40.21484375 121.12109375 C49.27929461 129.05598394 58.54134726 136.71219747 67.9375 144.25 C68.8970459 145.02174561 68.8970459 145.02174561 69.87597656 145.80908203 C76.61352116 151.22766371 83.38005496 156.60700989 90.1875 161.9375 C108.39846245 176.20646314 108.39846245 176.20646314 110.9375 179.25 C110.9375 180.24 110.9375 181.23 110.9375 182.25 C105.51958502 184.99651503 100.09748448 187.7345335 94.67163086 190.46533203 C92.83294117 191.39214079 90.99534133 192.32111544 89.15893555 193.25244141 C59.57548439 208.25 59.57548439 208.25 52.9375 208.25 C52.9375 208.91 52.9375 209.57 52.9375 210.25 C53.96182129 210.32516846 53.96182129 210.32516846 55.00683594 210.40185547 C66.82274139 211.27468869 78.63934892 212.16002524 90.4375 213.25 C91.27249023 213.3207373 92.10748047 213.39147461 92.96777344 213.46435547 C98.70526016 214.01776016 98.70526016 214.01776016 100.9375 216.25 C97.20137132 219.35407684 93.30417492 222.05924361 89.1875 224.625 C88.50848633 225.0492627 87.82947266 225.47352539 87.12988281 225.91064453 C80.75530934 229.8398118 74.23259734 233.48922234 67.6875 237.125 C51.99660802 245.84229365 36.49958643 254.72703244 21.9375 265.25 C22.58895996 265.0641333 23.24041992 264.8782666 23.91162109 264.68676758 C36.5008907 261.12387033 49.08207586 257.83570337 61.9375 255.375 C62.99114746 255.17237549 64.04479492 254.96975098 65.13037109 254.76098633 C74.40689285 253.04451125 83.50337492 252.07418784 92.9375 252.125 C93.68644531 252.12113281 94.43539063 252.11726562 95.20703125 252.11328125 C100.6837986 252.1231493 100.6837986 252.1231493 102.9375 253.25 C101.54857618 257.6173938 99.59974933 259.85647174 96.1875 262.875 C95.46276489 263.51731567 95.46276489 263.51731567 94.72338867 264.17260742 C89.86213991 268.42494759 84.77390439 272.3843095 79.66796875 276.3359375 C75.74128482 279.38298608 71.9037788 282.53398767 68.0625 285.6875 C60.73796008 291.68242313 53.21999712 297.39249992 45.60644531 303.01416016 C43.71065198 304.41797903 41.82356127 305.83314144 39.9375 307.25 C47.12998787 305.26800956 53.92324403 302.75053837 60.75 299.75 C61.74700928 299.31204102 62.74401855 298.87408203 63.77124023 298.42285156 C101.09557163 281.79229328 133.48150736 258.33615468 162.9375 230.25 C163.74445313 229.48558594 164.55140625 228.72117187 165.3828125 227.93359375 C174.19619434 219.37942903 181.08117494 209.37577636 187.9375 199.25 C184.02512684 199.25 181.29989759 200.85792056 177.8828125 202.57421875 C176.83672318 203.08913628 176.83672318 203.08913628 175.76950073 203.61445618 C173.53102173 204.71655023 171.29637391 205.82610436 169.0625 206.9375 C141.4700878 220.66359723 141.4700878 220.66359723 129.9375 221.25 C129.9375 220.59 129.9375 219.93 129.9375 219.25 C130.5975 219.25 131.2575 219.25 131.9375 219.25 C132.15792969 218.70601562 132.37835938 218.16203125 132.60546875 217.6015625 C134.36659483 214.49247775 136.77279253 212.16108511 139.25 209.625 C163.22542775 184.31333296 178.15458023 152.34061342 187.9375 119.25 C188.5975 119.25 189.2575 119.25 189.9375 119.25 C195.39286421 132.8778498 200.80301633 146.50732387 205.625 160.375 C206.13256836 161.83015015 206.13256836 161.83015015 206.65039062 163.31469727 C208.9375 169.98200792 208.9375 169.98200792 208.9375 172.25 C209.47890625 172.47300781 210.0203125 172.69601562 210.578125 172.92578125 C213.68686914 174.67058963 216.11712088 177.00223055 218.6875 179.4375 C222.02037664 182.56317399 225.37408947 185.64797773 228.82421875 188.64453125 C232.97095753 192.25475541 236.9959297 195.98283396 241 199.75 C241.66837891 200.37519531 242.33675781 201.00039063 243.02539062 201.64453125 C247.41445181 205.76487441 251.70191849 209.97244958 255.9375 214.25 C258.98911825 217.3066209 262.04994644 220.35360396 265.1171875 223.39453125 C266.68235315 224.95045899 268.2474557 226.5064502 269.8125 228.0625 C270.58980469 228.83142578 271.36710938 229.60035156 272.16796875 230.39257812 C276.97437891 235.17879329 281.51809851 240.10689115 285.9375 245.25 C287.39195517 246.85768373 288.84970895 248.46239715 290.3125 250.0625 C295.04268458 255.31204606 299.52209233 260.7343596 303.9375 266.25 C304.37352539 266.79172852 304.80955078 267.33345703 305.25878906 267.89160156 C323.9375 291.13710466 323.9375 291.13710466 323.9375 294.25 C316.65929696 294.37548626 316.65929696 294.37548626 313.12890625 293.76171875 C297.16033083 291.20127398 281.07672089 294.0878778 267 301.875 C248.23969609 316.42380711 237.48720173 337.62014829 231.9375 360.25 C228.33587972 358.72393822 226.03130821 356.59159874 223.2800293 353.83544922 C222.36194992 352.92044647 221.44387054 352.00544373 220.49797058 351.06271362 C219.50237516 350.06021513 218.50696251 349.05753511 217.51171875 348.0546875 C216.480819 347.02259417 215.44954769 345.99087186 214.41792297 344.95950317 C212.25540054 342.79541733 210.09627433 340.62801816 207.93969727 338.45800781 C205.19465368 335.69607072 202.44317091 332.94066464 199.68928814 330.18754387 C197.55697153 328.05495317 195.42728797 325.91974893 193.29844093 323.78369522 C192.28607464 322.7681763 191.27312762 321.75323593 190.25955772 320.7389183 C185.15076446 315.62223358 180.12534335 310.48753127 175.43763733 304.97938538 C172.6661201 301.78433031 169.67888035 298.80034398 166.6875 295.8125 C166.03998779 295.16506836 165.39247559 294.51763672 164.7253418 293.85058594 C158.21579123 287.41731603 151.2769275 281.71660807 143.9375 276.25 C141.08844559 277.5459361 139.01590212 278.91580382 136.80078125 281.12109375 C136.2281958 281.68965088 135.65561035 282.25820801 135.06567383 282.84399414 C134.46650146 283.45235107 133.8673291 284.06070801 133.25 284.6875 C132.62569092 285.31712646 132.00138184 285.94675293 131.3581543 286.59545898 C127.01302727 291.02929644 122.98014148 295.62353647 119.12890625 300.49609375 C117.15884722 302.97183638 115.12796707 305.38081156 113.0625 307.77709961 C106.64378181 315.23635219 100.67901288 323.00702123 94.75 330.85791016 C92.81140502 333.41641685 90.8601433 335.96487826 88.90625 338.51171875 C82.10463372 347.38540885 75.37126763 356.28154828 68.953125 365.4375 C67.03160285 368.11869369 65.02286157 370.6949624 62.9375 373.25 C57.68150007 372.60657871 53.15074695 370.95360939 48.25 369.0625 C30.35774574 362.36370081 12.75378438 357.68371264 -6.0625 354.25 C-5.39863281 354.83007812 -4.73476563 355.41015625 -4.05078125 356.0078125 C9.33775184 367.85226659 9.33775184 367.85226659 9.9375 373.25 C7.30150839 377.9815498 2.51882546 381.57600071 -1.5390625 385.06640625 C-20.23823564 401.24726969 -31.82938395 417.24607233 -41.08203125 440.2265625 C-48.10024075 457.64780904 -57.05356226 469.37706211 -71.9375 481.125 C-89.30330959 494.84206918 -103.71309143 510.93485438 -116.0625 529.25 C-116.6301709 530.07371094 -117.1978418 530.89742187 -117.78271484 531.74609375 C-124.5376134 541.65048045 -128.94863097 548.84947789 -128.75 561.015625 C-128.88804721 566.48972787 -130.87123502 571.37497692 -132.8125 576.4375 C-133.31668457 577.7841272 -133.31668457 577.7841272 -133.83105469 579.15795898 C-137.52140748 588.38997402 -142.92258788 592.01550816 -151.53515625 596.2109375 C-158.55491878 599.75627211 -162.26406801 604.19359764 -165.8125 611.1875 C-172.58715713 623.58715606 -184.54767655 627.08581984 -197.3984375 631.359375 C-205.4947785 633.32735554 -213.76348582 633.45350692 -222.0625 633.5 C-223.44308594 633.5309375 -223.44308594 633.5309375 -224.8515625 633.5625 C-232.60967473 633.60620767 -239.83544486 632.6380208 -246.1875 627.9375 C-248.0625 625.25 -248.0625 625.25 -248.625 622.3125 C-247.48165692 616.08763214 -242.88583667 611.74360713 -238.5 607.4375 C-237.9733374 606.91470459 -237.4466748 606.39190918 -236.90405273 605.85327148 C-233.61995203 602.63997636 -230.22518474 599.67364388 -226.625 596.8125 C-217.89340579 589.86260591 -209.99288397 581.76683326 -202.7890625 573.25 C-201.4854631 571.73994821 -200.13907179 570.26669078 -198.7734375 568.8125 C-188.81575714 558.20741627 -181.14150486 546.91691484 -174.28515625 534.11499023 C-173.89199219 533.38094971 -173.49882812 532.64690918 -173.09375 531.890625 C-172.74892578 531.23610352 -172.40410156 530.58158203 -172.04882812 529.90722656 C-170.16665228 526.74479844 -168.98006327 526.22484981 -165.375 525.125 C-156.02490812 521.67515658 -151.91025191 511.82245228 -147.82763672 503.39770508 C-146.94425948 501.5764361 -146.04225534 499.7654143 -145.13671875 497.95507812 C-141.83136637 491.28419053 -138.9305444 484.54405563 -136.32714844 477.57006836 C-126.47669916 451.70978655 -115.5118067 429.42501318 -96.37768555 409.23608398 C-83.95786083 396.12236192 -74.42862302 382.8165335 -66.26171875 366.6953125 C-57.62042477 349.81002541 -44.34967782 340.07417703 -28.0625 331.25 C-42.72059057 332.76323893 -55.2902868 336.75374406 -68.0625 344.25 C-69.38992224 344.92836009 -70.72124638 345.59941491 -72.0625 346.25 C-70.52569494 341.96312273 -68.35516804 338.21054487 -65.9375 334.375 C-65.50646973 333.69010498 -65.07543945 333.00520996 -64.63134766 332.29956055 C-53.36846824 314.61882537 -40.91402936 297.79708595 -28.0625 281.25 C-27.4629248 280.47148682 -26.86334961 279.69297363 -26.24560547 278.89086914 C-22.70798462 274.30876646 -19.09486429 269.81963366 -15.3125 265.4375 C-14.80154785 264.84348389 -14.2905957 264.24946777 -13.76416016 263.63745117 C-8.20567525 257.20793712 -2.45092368 250.96564413 3.33886719 244.74414062 C4.70875862 243.27033954 6.07320084 241.79147937 7.4375 240.3125 C8.2315625 239.45785156 9.025625 238.60320312 9.84375 237.72265625 C11.99614067 235.33729792 11.99614067 235.33729792 13.41796875 232.62890625 C15.21195394 229.8203279 16.86161977 228.74888197 19.75 227.125 C21.07451172 226.37476563 21.07451172 226.37476563 22.42578125 225.609375 C30.48060345 221.25 30.48060345 221.25 32.9375 221.25 C31.44652342 217.4547869 29.18049151 215.63957269 25.9375 213.25 C26.54478308 208.92423728 28.11016833 205.72922016 30.2109375 201.91796875 C30.53534821 201.32252762 30.85975891 200.72708649 31.19400024 200.11360168 C32.22727324 198.21807922 33.2689688 196.32739195 34.3125 194.4375 C41.8293038 182.401144 41.8293038 182.401144 44.84375 169.046875 C43.82262893 165.8954841 42.57283192 164.02511473 40.4375 161.5 C39.71175781 160.63375 38.98601562 159.7675 38.23828125 158.875 C36.0607149 156.39057795 33.85222202 153.93991169 31.625 151.5 C12.34352109 130.27056346 -2.7766946 105.84551704 -15.83056641 80.41796875 C-18.57508961 75.07255753 -21.39606215 69.8069565 -24.4375 64.625 C-28.08284373 58.34227661 -31.21463612 51.93050313 -34.0625 45.25 C-34.40410156 44.49589844 -34.74570312 43.74179687 -35.09765625 42.96484375 C-38.10289544 35.48669041 -38.3342153 26.59120425 -36.4765625 18.7890625 C-33.55072354 11.99789499 -27.17901458 7.19782161 -21.0625 3.375 C-13.93668184 0.70281819 -7.52730529 0.05753648 0 0 Z " fill="#000000" transform="translate(370.0625,268.75)"/>
<path d="M0 0 C5.27561431 4.55382628 9.10212082 10.84164286 13.09399414 16.50585938 C17.54644125 22.81691602 22.22640301 28.92939676 27 35 C27.73992187 35.94746094 28.47984375 36.89492188 29.2421875 37.87109375 C39.64867497 50.92549529 51.36683804 60.49198105 64.73291016 70.31835938 C93.10841019 91.36622113 107.32637306 119.99822668 122.91748047 150.78320312 C139.53044109 183.82592486 139.53044109 183.82592486 162 213 C163.56543566 214.72650943 165.12815186 216.45549048 166.6875 218.1875 C167.40550781 218.97898437 168.12351562 219.77046875 168.86328125 220.5859375 C171.89228715 224.00810505 174.76010418 227.55185898 177.6328125 231.10546875 C179.6841017 233.61372832 181.77467328 236.08138433 183.88745117 238.5378418 C190.38787559 246.10982874 196.43149403 253.99507913 202.4453125 261.95605469 C203.91754204 263.89159264 205.40679055 265.8120741 206.90625 267.7265625 C207.58192017 268.5918457 207.58192017 268.5918457 208.27124023 269.47460938 C209.47131511 271.00845436 210.67496512 272.53950033 211.87890625 274.0703125 C217.71181867 282.12682137 217.71181867 282.12682137 218.5 287.25 C218 290 218 290 216.1875 291.8125 C207.54961732 296.50163631 193.40156902 295.01360076 184.1875 292.6875 C173.7071282 289.2105994 163.84219275 283.94965919 154 279 C153.28763184 278.64969727 152.57526367 278.29939453 151.84130859 277.93847656 C140.59815871 272.40829755 131.04765171 265.84365206 126 254 C123.97359683 247.92341877 122.35897806 241.72290486 120.69384766 235.54003906 C114.04391243 211.1959412 101.85060203 190.76783263 84 173 C83.05004424 171.97684216 82.10630751 170.94788468 81.16796875 169.9140625 C80.67876953 169.37523437 80.18957031 168.83640625 79.68554688 168.28125 C78.696006 167.18720741 77.70897344 166.09089025 76.72460938 164.9921875 C74.05215529 162.05772811 71.30960514 159.34376796 68.296875 156.7578125 C63.47816446 152.61568404 58.98282959 148.16890205 54.49145508 143.67675781 C53.07331716 142.26080053 51.64703335 140.85301711 50.22070312 139.4453125 C41.91693857 131.15885947 34.44630591 122.33728099 27.6875 112.75 C27.28466797 112.19054687 26.88183594 111.63109375 26.46679688 111.0546875 C24.46843927 108.24338378 22.728039 105.48736044 21.17578125 102.40625 C18.84347176 98.24219608 15.48214915 96.21856571 11.5 93.75 C-5.90864088 82.40111535 -19.07599354 67.25583932 -30.55517578 50.12548828 C-31.9949947 48.00736332 -33.4734423 45.92188947 -34.96484375 43.83984375 C-35.89332846 42.51829892 -36.82171765 41.19668698 -37.75 39.875 C-38.19255127 39.27228271 -38.63510254 38.66956543 -39.09106445 38.04858398 C-41.06196335 35.19818292 -42.00257145 33.40731733 -41.98046875 29.90625 C-38.76200202 20.36625301 -31.00579226 13.62847032 -23 8 C-22.33097656 7.51789062 -21.66195312 7.03578125 -20.97265625 6.5390625 C-15.50733842 2.85081121 -6.60579728 -2.83303021 0 0 Z " fill="#000000" transform="translate(684,572)"/>
<path d="M0 0 C1.14355957 0.00572021 2.28711914 0.01144043 3.46533203 0.01733398 C22.64565293 0.41968992 38.66464054 8.1828373 51.99072266 21.98339844 C59.93646188 30.68867746 64.65734208 40.48565076 68.375 51.5 C68.64183594 52.27601563 68.90867187 53.05203125 69.18359375 53.8515625 C74.04296813 71.21125856 69.11353792 90.30346235 60.70703125 105.6640625 C54.93133743 115.53470583 47.33158513 123.76742068 37.375 129.5 C36.00601563 130.29664063 36.00601563 130.29664063 34.609375 131.109375 C19.47593707 139.28305003 1.68543104 142.43054479 -15.2109375 138.25 C-34.85016779 132.14849156 -50.32501069 121.55408261 -60.38671875 103.3046875 C-70.10454298 84.15139713 -71.03954537 65.36538399 -64.81640625 44.83203125 C-58.62334017 27.51897095 -44.55645825 13.53818767 -28.125 5.75 C-18.78546745 1.55312145 -10.22303719 -0.0595151 0 0 Z " fill="#000000" transform="translate(833.625,201.5)"/>
<path d="M0 0 C6.84110548 4.01766657 13.08681412 8.54074129 18.62890625 14.234375 C19.52351562 15.07484375 20.418125 15.9153125 21.33984375 16.78125 C24.84682205 21.0596562 24.29559465 26.07189584 24.25390625 31.359375 C24.25390625 33.32035573 24.26643558 35.28138628 24.29296875 37.2421875 C24.2873291 38.10473145 24.28168945 38.96727539 24.27587891 39.85595703 C24.70307214 42.7340459 25.87028036 43.96364682 27.62890625 46.234375 C28.2421054 49.19448697 28.13860034 52.15459013 28.12890625 55.171875 C28.15726563 55.97044922 28.185625 56.76902344 28.21484375 57.59179688 C28.22907063 61.88475892 28.11546221 63.64969692 25.28515625 67.05078125 C23.9703125 68.13166016 23.9703125 68.13166016 22.62890625 69.234375 C19.15134535 72.82060968 19.010386 76.57965808 18.62890625 81.359375 C17.53545903 92.25805322 15.54911321 103.7898566 6.62890625 111.234375 C-2.41442429 112.86513952 -9.14382477 108.11011664 -16.37109375 103.234375 C-19.46503632 101.00356735 -22.46006439 98.69873848 -25.37109375 96.234375 C-25.12654002 106.32777436 -22.37627879 115.67545575 -19.37109375 125.234375 C-19.09652344 126.12511719 -18.82195312 127.01585937 -18.5390625 127.93359375 C-16.18386065 134.21026468 -11.60600989 138.93363991 -7.24609375 143.8984375 C-3.76852171 147.87776029 -0.65542774 152.10446105 2.48046875 156.35546875 C5.7512964 160.73837781 9.18210616 164.98926971 12.62890625 169.234375 C11.96890625 169.564375 11.30890625 169.894375 10.62890625 170.234375 C7.85840151 169.06200105 5.19588101 167.81906985 2.50390625 166.484375 C0.76627918 165.6431786 -0.97203451 164.80339942 -2.7109375 163.96484375 C-3.63374512 163.51802246 -4.55655273 163.07120117 -5.50732422 162.61083984 C-39.74907926 146.1526118 -73.02553923 130.86976341 -111.37109375 129.234375 C-100.64322878 118.45092524 -88.99764656 109.48222787 -75.74609375 101.984375 C-67.78057706 97.23981389 -64.4902121 91.76767769 -62.07421875 82.8203125 C-59.85462693 71.50039421 -61.25972935 62.65944611 -65.9609375 52.37890625 C-69.89467499 43.60699855 -70.33615672 31.32067364 -67.1953125 22.22265625 C-61.15144615 9.1107839 -49.95460654 -0.07403955 -36.55957031 -5.12402344 C-24.42206247 -8.68240927 -10.91426898 -5.7163958 0 0 Z " fill="#000000" transform="translate(461.37109375,132.765625)"/>
<path d="M0 0 C1.2375 -0.020625 2.475 -0.04125 3.75 -0.0625 C4.44609375 -0.07410156 5.1421875 -0.08570313 5.859375 -0.09765625 C8 0 8 0 9.83276367 0.49511719 C12.21823307 1.05083992 14.3683281 1.14277932 16.81640625 1.17578125 C33.41561595 1.5506348 45.53824389 3.88728471 58 15.5625 C66.13217072 24.13118883 78 39.44233471 78 52 C78.73790771 52.2693335 79.47581543 52.53866699 80.23608398 52.81616211 C82.9025425 53.9582571 84.90833418 55.21003413 87.22265625 56.94140625 C88.39356812 57.81091919 88.39356812 57.81091919 89.58813477 58.69799805 C90.81294556 59.62092651 90.81294556 59.62092651 92.0625 60.5625 C92.90288818 61.19003174 93.74327637 61.81756348 94.60913086 62.46411133 C96.29311292 63.72229595 97.97551594 64.98259704 99.65625 66.24511719 C101.7099111 67.78279594 103.77283306 69.30601004 105.84375 70.8203125 C106.9059375 71.60148437 107.968125 72.38265625 109.0625 73.1875 C109.98160156 73.86167969 110.90070313 74.53585937 111.84765625 75.23046875 C114 77 114 77 116 80 C105.37467581 82.98203922 94.98255884 84.95931629 83.97265625 85.81103516 C81.79770253 85.99080602 81.79770253 85.99080602 78.875 86.57421875 C73.98493439 87.23523053 71.81625305 86.62099647 67.83203125 83.58984375 C64.27575913 80.30225611 61.1146116 76.70240165 58 73 C57.50967285 72.42314453 57.0193457 71.84628906 56.51416016 71.25195312 C48.18313615 61.33312059 41.15859707 50.53383382 34.2109375 39.625 C27.52222184 29.13867877 20.62437036 19.51160484 11.875 10.625 C11.13842163 9.87416138 11.13842163 9.87416138 10.38696289 9.1081543 C7.14054463 5.89110554 3.80447991 3.47234748 0 1 C0 0.67 0 0.34 0 0 Z " fill="#000000" transform="translate(481,226)"/>



</svg>
